{"asset":{"version":"2.0","generator":"Blockbench 4.1.5 glTF exporter"},"scenes":[{"nodes":[2],"name":"blockbench_export"}],"scene":0,"nodes":[{"name":"default"},{"rotation":[-0.3535533905932734,0.35355339059327406,0.6123724356957936,0.6123724356957956],"name":"polySurface16","mesh":0},{"children":[0,1]}],"bufferViews":[{"buffer":0,"byteOffset":0,"byteLength":22056,"target":34962,"byteStride":12},{"buffer":0,"byteOffset":22056,"byteLength":22056,"target":34962,"byteStride":12},{"buffer":0,"byteOffset":44112,"byteLength":14864,"target":34962,"byteStride":8},{"buffer":0,"byteOffset":58976,"byteLength":5316,"target":34963}],"buffers":[{"byteLength":64292,"uri":"data:application/octet-stream;base64,"}],"accessors":[{"bufferView":0,"componentType":5126,"count":1838,"max":[1.634577989578247,2.8050649166107178,21.204635620117188],"min":[-1.698462963104248,2.0699350833892822,0.34252500534057617],"type":"VEC3"},{"bufferView":1,"componentType":5126,"count":1838,"max":[1,1,1],"min":[-1,-1,-1],"type":"VEC3"},{"bufferView":2,"componentType":5126,"count":1858,"max":[0.87890625,1],"min":[0,0.12109375],"type":"VEC2"},{"bufferView":3,"componentType":5123,"count":2658,"max":[1837],"min":[0],"type":"SCALAR"}],"materials":[{"pbrMetallicRoughness":{"metallicFactor":0,"roughnessFactor":1,"baseColorTexture":{"index":0}},"alphaMode":"MASK","alphaCutoff":0.05,"doubleSided":true}],"textures":[{"sampler":0,"source":0,"name":"goldblock.jpg"}],"samplers":[{"magFilter":9728,"minFilter":9728,"wrapS":33071,"wrapT":33071}],"images":[{"mimeType":"image/png","uri":"data:image/png;base64,"}],"meshes":[{"primitives":[{"mode":4,"attributes":{"POSITION":0,"NORMAL":1,"TEXCOORD_0":2},"indices":3,"material":0}]}]}